<?xml version="1.0" encoding="UTF-8"?>
<svg width="700pt" height="700pt" version="1.1" viewBox="0 0 700 700" xmlns="http://www.w3.org/2000/svg" xmlns:xlink="http://www.w3.org/1999/xlink">
 <defs>
  <symbol id="t" overflow="visible">
   <path d="m9.6719-0.57812c-0.5 0.26172-1.0234 0.45312-1.5625 0.57812-0.54297 0.13281-1.1055 0.20312-1.6875 0.20312-1.75 0-3.1406-0.48828-4.1719-1.4688-1.0234-0.97656-1.5312-2.3047-1.5312-3.9844 0-1.6875 0.50781-3.0195 1.5312-4 1.0312-0.97656 2.4219-1.4688 4.1719-1.4688 0.58203 0 1.1445 0.070312 1.6875 0.20312 0.53906 0.125 1.0625 0.32031 1.5625 0.57812v2.1875c-0.5-0.34375-0.99609-0.59375-1.4844-0.75-0.49219-0.16406-1.0078-0.25-1.5469-0.25-0.96875 0-1.7305 0.3125-2.2812 0.9375-0.55469 0.61719-0.82812 1.4688-0.82812 2.5625 0 1.0859 0.27344 1.9375 0.82812 2.5625 0.55078 0.61719 1.3125 0.92188 2.2812 0.92188 0.53906 0 1.0547-0.078125 1.5469-0.23438 0.48828-0.15625 0.98438-0.40625 1.4844-0.75z"/>
  </symbol>
  <symbol id="d" overflow="visible">
   <path d="m7.0781-5.75c-0.21875-0.10156-0.4375-0.17578-0.65625-0.21875-0.21875-0.050781-0.4375-0.078125-0.65625-0.078125-0.65625 0-1.1641 0.21094-1.5156 0.625-0.34375 0.41797-0.51562 1.0117-0.51562 1.7812v3.6406h-2.5156v-7.8906h2.5156v1.2969c0.32031-0.51953 0.69141-0.89453 1.1094-1.125 0.42578-0.23828 0.92969-0.35938 1.5156-0.35938 0.09375 0 0.1875 0.007813 0.28125 0.015625 0.09375 0 0.23828 0.011719 0.4375 0.03125z"/>
  </symbol>
  <symbol id="a" overflow="visible">
   <path d="m9.0938-3.9688v0.71875h-5.9062c0.0625 0.59375 0.27344 1.043 0.64062 1.3438 0.375 0.29297 0.89062 0.4375 1.5469 0.4375 0.53125 0 1.0703-0.078125 1.625-0.23438 0.5625-0.16406 1.1328-0.40625 1.7188-0.71875v1.9375c-0.59375 0.23047-1.1953 0.40234-1.7969 0.51562-0.59375 0.11328-1.1875 0.17188-1.7812 0.17188-1.4297 0-2.5391-0.35938-3.3281-1.0781-0.79297-0.72656-1.1875-1.75-1.1875-3.0625 0-1.2891 0.38281-2.3008 1.1562-3.0312 0.78125-0.73828 1.8516-1.1094 3.2188-1.1094 1.2383 0 2.2266 0.375 2.9688 1.125 0.75 0.74219 1.125 1.7344 1.125 2.9844zm-2.5938-0.84375c0-0.47656-0.14062-0.86328-0.42188-1.1562-0.28125-0.28906-0.64844-0.4375-1.0938-0.4375-0.49219 0-0.89062 0.14062-1.2031 0.42188-0.30469 0.27344-0.49219 0.66406-0.5625 1.1719z"/>
  </symbol>
  <symbol id="g" overflow="visible">
   <path d="m4.75-3.5469c-0.52344 0-0.91797 0.089844-1.1875 0.26562-0.26172 0.17969-0.39062 0.4375-0.39062 0.78125 0 0.32422 0.10156 0.57812 0.3125 0.76562 0.21875 0.17969 0.51562 0.26562 0.89062 0.26562 0.47656 0 0.87891-0.17188 1.2031-0.51562 0.32031-0.34375 0.48438-0.76953 0.48438-1.2812v-0.28125zm3.8594-0.95312v4.5h-2.5469v-1.1719c-0.33594 0.48047-0.71484 0.82812-1.1406 1.0469-0.42969 0.21875-0.94531 0.32812-1.5469 0.32812-0.8125 0-1.4766-0.23828-1.9844-0.71875-0.51172-0.47656-0.76562-1.0977-0.76562-1.8594 0-0.91406 0.31641-1.5859 0.95312-2.0156 0.63281-0.4375 1.6328-0.65625 3-0.65625h1.4844v-0.20312c0-0.39453-0.15625-0.6875-0.46875-0.875s-0.80859-0.28125-1.4844-0.28125c-0.53125 0-1.0312 0.058594-1.5 0.17188-0.46875 0.10547-0.90234 0.26172-1.2969 0.46875v-1.9219c0.53906-0.125 1.082-0.21875 1.625-0.28125 0.53906-0.070312 1.0859-0.10938 1.6406-0.10938 1.4258 0 2.4531 0.28125 3.0781 0.84375 0.63281 0.55469 0.95312 1.4648 0.95312 2.7344z"/>
  </symbol>
  <symbol id="c" overflow="visible">
   <path d="m3.9688-10.141v2.25h2.5938v1.7969h-2.5938v3.3438c0 0.375 0.070312 0.625 0.21875 0.75 0.14453 0.125 0.42969 0.1875 0.85938 0.1875h1.3125v1.8125h-2.1719c-1 0-1.7109-0.20703-2.125-0.625-0.41797-0.41406-0.625-1.125-0.625-2.125v-3.3438h-1.25v-1.7969h1.25v-2.25z"/>
  </symbol>
  <symbol id="f" overflow="visible">
   <path d="m6.5781-6.7344v-4.2344h2.5469v10.969h-2.5469v-1.1406c-0.34375 0.46875-0.72656 0.8125-1.1406 1.0312-0.41797 0.20703-0.90234 0.3125-1.4531 0.3125-0.96875 0-1.7656-0.38281-2.3906-1.1562-0.625-0.76953-0.9375-1.7656-0.9375-2.9844s0.3125-2.2109 0.9375-2.9844c0.625-0.76953 1.4219-1.1562 2.3906-1.1562 0.53906 0 1.0195 0.10938 1.4375 0.32812 0.42578 0.21094 0.8125 0.54688 1.1562 1.0156zm-1.6562 5.1094c0.53906 0 0.95312-0.19531 1.2344-0.59375 0.28125-0.39453 0.42188-0.96875 0.42188-1.7188s-0.14062-1.3203-0.42188-1.7188c-0.28125-0.39453-0.69531-0.59375-1.2344-0.59375-0.54297 0-0.95312 0.19922-1.2344 0.59375-0.28125 0.39844-0.42188 0.96875-0.42188 1.7188s0.14062 1.3242 0.42188 1.7188c0.28125 0.39844 0.69141 0.59375 1.2344 0.59375z"/>
  </symbol>
  <symbol id="j" overflow="visible">
   <path d="m5.4219-1.625c0.53125 0 0.9375-0.19531 1.2188-0.59375 0.28906-0.39453 0.4375-0.96875 0.4375-1.7188s-0.14844-1.3203-0.4375-1.7188c-0.28125-0.39453-0.6875-0.59375-1.2188-0.59375-0.54297 0-0.96094 0.19922-1.25 0.59375-0.29297 0.39844-0.4375 0.96875-0.4375 1.7188s0.14453 1.3242 0.4375 1.7188c0.28906 0.39844 0.70703 0.59375 1.25 0.59375zm-1.6875-5.1094c0.35156-0.46875 0.73828-0.80469 1.1562-1.0156 0.42578-0.21875 0.91406-0.32812 1.4688-0.32812 0.96875 0 1.7656 0.38672 2.3906 1.1562 0.625 0.77344 0.9375 1.7656 0.9375 2.9844s-0.3125 2.2148-0.9375 2.9844c-0.625 0.77344-1.4219 1.1562-2.3906 1.1562-0.55469 0-1.043-0.10938-1.4688-0.32812-0.41797-0.21875-0.80469-0.55469-1.1562-1.0156v1.1406h-2.5156v-10.969h2.5156z"/>
  </symbol>
  <symbol id="i" overflow="visible">
   <path d="m0.17188-7.8906h2.5312l2.125 5.3594 1.7969-5.3594h2.5312l-3.3281 8.6406c-0.33594 0.875-0.72656 1.4844-1.1719 1.8281-0.4375 0.35156-1.0234 0.53125-1.75 0.53125h-1.4688v-1.6562h0.79688c0.42578 0 0.73828-0.070313 0.9375-0.20312 0.19531-0.13672 0.34766-0.38281 0.45312-0.73438l0.0625-0.21875z"/>
  </symbol>
  <symbol id="e" overflow="visible">
   <path d="m1.2188-7.8906h2.5156v7.75c0 1.0508-0.25781 1.8516-0.76562 2.4062-0.5 0.5625-1.2344 0.84375-2.2031 0.84375h-1.25v-1.6562h0.4375c0.47656 0 0.80469-0.10938 0.98438-0.32812 0.1875-0.21094 0.28125-0.63281 0.28125-1.2656zm0-3.0781h2.5156v2.0625h-2.5156z"/>
  </symbol>
  <symbol id="b" overflow="visible">
   <path d="m4.9688-6.2812c-0.5625 0-0.99219 0.20312-1.2812 0.60938-0.29297 0.39844-0.4375 0.97656-0.4375 1.7344 0 0.75 0.14453 1.3281 0.4375 1.7344 0.28906 0.40625 0.71875 0.60938 1.2812 0.60938 0.55078 0 0.97266-0.20312 1.2656-0.60938 0.28906-0.40625 0.4375-0.98438 0.4375-1.7344 0-0.75781-0.14844-1.3359-0.4375-1.7344-0.29297-0.40625-0.71484-0.60938-1.2656-0.60938zm0-1.7969c1.3516 0 2.4102 0.36719 3.1719 1.0938 0.76953 0.73047 1.1562 1.7461 1.1562 3.0469 0 1.293-0.38672 2.3086-1.1562 3.0469-0.76172 0.73047-1.8203 1.0938-3.1719 1.0938-1.3672 0-2.4336-0.36328-3.2031-1.0938-0.76172-0.73828-1.1406-1.7539-1.1406-3.0469 0-1.3008 0.37891-2.3164 1.1406-3.0469 0.76953-0.72656 1.8359-1.0938 3.2031-1.0938z"/>
  </symbol>
  <symbol id="h" overflow="visible">
   <path d="m9.1562-4.8125v4.8125h-2.5469v-3.6875c0-0.67578-0.015625-1.1445-0.046875-1.4062-0.03125-0.25781-0.085938-0.44531-0.15625-0.5625-0.09375-0.16406-0.23047-0.29688-0.40625-0.39062-0.16797-0.09375-0.35938-0.14062-0.57812-0.14062-0.52344 0-0.93359 0.20312-1.2344 0.60938-0.30469 0.40625-0.45312 0.96875-0.45312 1.6875v3.8906h-2.5156v-7.8906h2.5156v1.1562c0.38281-0.46875 0.78906-0.80469 1.2188-1.0156 0.42578-0.21875 0.89453-0.32812 1.4062-0.32812 0.91406 0 1.6094 0.28125 2.0781 0.84375 0.47656 0.55469 0.71875 1.3594 0.71875 2.4219z"/>
  </symbol>
  <symbol id="s" overflow="visible">
   <path d="m6.5781-1.3438c-0.34375 0.46094-0.72656 0.79688-1.1406 1.0156-0.41797 0.21875-0.90234 0.32812-1.4531 0.32812-0.96875 0-1.7656-0.37891-2.3906-1.1406-0.625-0.75781-0.9375-1.7266-0.9375-2.9062 0-1.1758 0.3125-2.1406 0.9375-2.8906 0.625-0.75781 1.4219-1.1406 2.3906-1.1406 0.55078 0 1.0352 0.10938 1.4531 0.32812 0.41406 0.21875 0.79688 0.5625 1.1406 1.0312v-1.1719h2.5469v7.0938c0 1.2695-0.40234 2.2383-1.2031 2.9062-0.80469 0.66406-1.9648 1-3.4844 1-0.5 0-0.98047-0.039063-1.4375-0.10938-0.46094-0.074219-0.92188-0.1875-1.3906-0.34375v-1.9688c0.44531 0.25781 0.87891 0.44531 1.2969 0.5625 0.42578 0.125 0.85156 0.1875 1.2812 0.1875 0.82031 0 1.4258-0.18359 1.8125-0.54688 0.38281-0.35547 0.57812-0.91406 0.57812-1.6875zm-1.6562-4.9062c-0.52344 0-0.92969 0.19531-1.2188 0.57812-0.29297 0.38672-0.4375 0.92969-0.4375 1.625 0 0.73047 0.14062 1.2812 0.42188 1.6562s0.69141 0.5625 1.2344 0.5625c0.51953 0 0.92578-0.19141 1.2188-0.57812 0.28906-0.38281 0.4375-0.92969 0.4375-1.6406 0-0.69531-0.14844-1.2383-0.4375-1.625-0.29297-0.38281-0.69922-0.57812-1.2188-0.57812z"/>
  </symbol>
  <symbol id="r" overflow="visible">
   <path d="m1.2188-10.969h2.5156v10.969h-2.5156z"/>
  </symbol>
  <symbol id="q" overflow="visible">
   <path d="m6.4062-10.969v1.6562h-1.3906c-0.36719 0-0.62109 0.070312-0.76562 0.20312-0.13672 0.125-0.20312 0.34375-0.20312 0.65625v0.5625h2.1562v1.7969h-2.1562v6.0938h-2.5156v-6.0938h-1.25v-1.7969h1.25v-0.5625c0-0.85156 0.23828-1.4844 0.71875-1.8906 0.47656-0.41406 1.2188-0.625 2.2188-0.625z"/>
  </symbol>
  <symbol id="p" overflow="visible">
   <path d="m8.5312-6.5781c0.32031-0.48828 0.70312-0.85938 1.1406-1.1094 0.4375-0.25781 0.91406-0.39062 1.4375-0.39062 0.91406 0 1.6094 0.28125 2.0781 0.84375 0.47656 0.55469 0.71875 1.3594 0.71875 2.4219v4.8125h-2.5469v-4.1094c0.007813-0.0625 0.015625-0.125 0.015625-0.1875v-0.29688c0-0.55078-0.085938-0.95312-0.25-1.2031-0.15625-0.25781-0.42188-0.39062-0.79688-0.39062-0.48047 0-0.85156 0.19922-1.1094 0.59375-0.26172 0.39844-0.39844 0.96875-0.40625 1.7188v3.875h-2.5312v-4.1094c0-0.875-0.078125-1.4375-0.23438-1.6875-0.14844-0.25781-0.41406-0.39062-0.79688-0.39062-0.48047 0-0.85547 0.20312-1.125 0.60938-0.26172 0.39844-0.39062 0.96094-0.39062 1.6875v3.8906h-2.5312v-7.8906h2.5312v1.1562c0.3125-0.44531 0.66406-0.78125 1.0625-1 0.40625-0.22656 0.85156-0.34375 1.3438-0.34375 0.53906 0 1.0195 0.13281 1.4375 0.39062 0.41406 0.26172 0.73438 0.63281 0.95312 1.1094z"/>
  </symbol>
  <symbol id="o" overflow="visible">
   <path d="m9.1562-4.8125v4.8125h-2.5469v-3.6719c0-0.6875-0.015625-1.1602-0.046875-1.4219-0.03125-0.25781-0.085938-0.44531-0.15625-0.5625-0.09375-0.16406-0.23047-0.29688-0.40625-0.39062-0.16797-0.09375-0.35938-0.14062-0.57812-0.14062-0.52344 0-0.93359 0.20312-1.2344 0.60938-0.30469 0.40625-0.45312 0.96875-0.45312 1.6875v3.8906h-2.5156v-10.969h2.5156v4.2344c0.38281-0.46875 0.78906-0.80469 1.2188-1.0156 0.42578-0.21875 0.89453-0.32812 1.4062-0.32812 0.91406 0 1.6094 0.28125 2.0781 0.84375 0.47656 0.55469 0.71875 1.3594 0.71875 2.4219z"/>
  </symbol>
  <symbol id="n" overflow="visible">
   <path d="m1.3281-10.531h3.0312l3.8281 7.2188v-7.2188h2.5625v10.531h-3.0312l-3.8281-7.2188v7.2188h-2.5625z"/>
  </symbol>
  <symbol id="m" overflow="visible">
   <path d="m1.125-3.0781v-4.8125h2.5469v0.78125c0 0.42969-0.007813 0.96484-0.015625 1.6094v1.2969c0 0.63672 0.015625 1.0938 0.046875 1.375s0.085937 0.48438 0.17188 0.60938c0.10156 0.16797 0.23828 0.29688 0.40625 0.39062 0.16406 0.085937 0.35156 0.125 0.5625 0.125 0.53125 0 0.94531-0.20312 1.25-0.60938 0.30078-0.40625 0.45312-0.96875 0.45312-1.6875v-3.8906h2.5156v7.8906h-2.5156v-1.1406c-0.38672 0.46094-0.79297 0.79688-1.2188 1.0156-0.42969 0.21875-0.89844 0.32812-1.4062 0.32812-0.90625 0-1.6016-0.27344-2.0781-0.82812-0.48047-0.5625-0.71875-1.3789-0.71875-2.4531z"/>
  </symbol>
  <symbol id="l" overflow="visible">
   <path d="m1.3281-10.531h4.5c1.3438 0 2.3672 0.30469 3.0781 0.90625 0.71875 0.59375 1.0781 1.4375 1.0781 2.5312 0 1.1055-0.35938 1.9531-1.0781 2.5469-0.71094 0.59375-1.7344 0.89062-3.0781 0.89062h-1.7812v3.6562h-2.7188zm2.7188 1.9688v2.9375h1.5c0.51953 0 0.92188-0.125 1.2031-0.375 0.28906-0.25781 0.4375-0.625 0.4375-1.0938s-0.14844-0.82812-0.4375-1.0781c-0.28125-0.25781-0.68359-0.39062-1.2031-0.39062z"/>
  </symbol>
  <symbol id="k" overflow="visible">
   <path d="m7.5938-7.6562v2.0625c-0.34375-0.22656-0.6875-0.39844-1.0312-0.51562-0.34375-0.11328-0.70312-0.17188-1.0781-0.17188-0.71094 0-1.2617 0.21094-1.6562 0.625-0.38672 0.40625-0.57812 0.98047-0.57812 1.7188 0 0.74219 0.19141 1.3203 0.57812 1.7344 0.39453 0.40625 0.94531 0.60938 1.6562 0.60938 0.39453 0 0.76953-0.054688 1.125-0.17188 0.35156-0.125 0.67969-0.30078 0.98438-0.53125v2.0625c-0.39844 0.14844-0.79688 0.25391-1.2031 0.32812-0.40625 0.070312-0.8125 0.10938-1.2188 0.10938-1.4297 0-2.543-0.36328-3.3438-1.0938-0.80469-0.72656-1.2031-1.7422-1.2031-3.0469 0-1.3008 0.39844-2.3164 1.2031-3.0469 0.80078-0.72656 1.9141-1.0938 3.3438-1.0938 0.40625 0 0.8125 0.039063 1.2188 0.10938 0.40625 0.0625 0.80469 0.16797 1.2031 0.3125z"/>
  </symbol>
 </defs>
 <g>
  <path d="m474.12 0h-248.25c-11.098 0.0078125-21.738 4.418-29.586 12.27-7.8477 7.8477-12.262 18.488-12.27 29.586v476.29c0.007813 11.098 4.4219 21.738 12.27 29.586 7.8477 7.8516 18.488 12.262 29.586 12.27h248.25c11.098-0.007812 21.738-4.418 29.586-12.27 7.8477-7.8477 12.262-18.488 12.27-29.586v-476.29c-0.007813-11.098-4.4219-21.738-12.27-29.586-7.8477-7.8516-18.488-12.262-29.586-12.27zm27.422 518.14c-0.007813 7.2695-2.8984 14.242-8.0391 19.383-5.1445 5.1406-12.113 8.0312-19.383 8.0391h-248.25c-7.2695-0.007812-14.238-2.8984-19.383-8.0391-5.1406-5.1406-8.0312-12.113-8.0391-19.383v-476.29c0.007813-7.2695 2.8984-14.242 8.0391-19.383 5.1445-5.1406 12.113-8.0312 19.383-8.0391h35.363l15.586 43.098c1.0352 2.8555 3.7461 4.7617 6.7852 4.7617h132.79-0.003906c3.0391 0 5.75-1.9062 6.7852-4.7617l15.586-43.098h35.363c7.2695 0.007812 14.238 2.8984 19.383 8.0391 5.1406 5.1406 8.0312 12.113 8.0391 19.383z"/>
  <use x="184.019531" y="603.300781" xlink:href="#t"/>
  <use x="194.613281" y="603.300781" xlink:href="#d"/>
  <use x="201.730469" y="603.300781" xlink:href="#a"/>
  <use x="211.519531" y="603.300781" xlink:href="#g"/>
  <use x="221.257812" y="603.300781" xlink:href="#c"/>
  <use x="228.160156" y="603.300781" xlink:href="#a"/>
  <use x="237.945312" y="603.300781" xlink:href="#f"/>
  <use x="253.304688" y="603.300781" xlink:href="#j"/>
  <use x="263.632812" y="603.300781" xlink:href="#i"/>
  <use x="278.066406" y="603.300781" xlink:href="#f"/>
  <use x="288.398438" y="603.300781" xlink:href="#g"/>
  <use x="298.136719" y="603.300781" xlink:href="#e"/>
  <use x="303.085938" y="603.300781" xlink:href="#a"/>
  <use x="312.875" y="603.300781" xlink:href="#b"/>
  <use x="322.789062" y="603.300781" xlink:href="#h"/>
  <use x="333.066406" y="603.300781" xlink:href="#s"/>
  <use x="348.421875" y="603.300781" xlink:href="#r"/>
  <use x="353.367188" y="603.300781" xlink:href="#a"/>
  <use x="363.15625" y="603.300781" xlink:href="#a"/>
  <use x="184.019531" y="617.730469" xlink:href="#q"/>
  <use x="190.300781" y="617.730469" xlink:href="#d"/>
  <use x="197.417969" y="617.730469" xlink:href="#b"/>
  <use x="207.332031" y="617.730469" xlink:href="#p"/>
  <use x="227.398438" y="617.730469" xlink:href="#c"/>
  <use x="234.296875" y="617.730469" xlink:href="#o"/>
  <use x="244.570312" y="617.730469" xlink:href="#a"/>
  <use x="259.386719" y="617.730469" xlink:href="#n"/>
  <use x="271.464844" y="617.730469" xlink:href="#b"/>
  <use x="281.378906" y="617.730469" xlink:href="#m"/>
  <use x="291.65625" y="617.730469" xlink:href="#h"/>
  <use x="306.953125" y="617.730469" xlink:href="#l"/>
  <use x="317.53125" y="617.730469" xlink:href="#d"/>
  <use x="324.652344" y="617.730469" xlink:href="#b"/>
  <use x="334.566406" y="617.730469" xlink:href="#e"/>
  <use x="339.511719" y="617.730469" xlink:href="#a"/>
  <use x="349.300781" y="617.730469" xlink:href="#k"/>
  <use x="357.859375" y="617.730469" xlink:href="#c"/>
 </g>
</svg>
